# xmcd
#
# Track frame offsets: 
#        183
#        9000
#        16555
#        25858
#        35973
#        46223
#        62488
#        72188
#        90465
#        105730
#        121398
#        133098
#        144738
#        154468
#        164243
#        178990
#        196015
#        209025
#        224140
#
# Disc length: 3133 seconds
#
# Revision: 2
# Processed by: cddbd v1.5.2PL0 Copyright (c) Steve Scherf et al.
# Submitted via: ExactAudioCopy v0.95a5
#
DISCID=1a0c3b13
DTITLE=Ricky Nelson - Greatest Hits Live
DYEAR=1997
DGENRE=Country
TTITLE0=Stood Up
TTITLE1=Waitin' In School
TTITLE2=I Got A Feeling
TTITLE3=Travelin' Man
TTITLE4=Hello Mary Lou
TTITLE5=Garden Party
TTITLE6=Do You Know  What I Mean
TTITLE7=That's Alright Mama
TTITLE8=Believe What You Say
TTITLE9=It's Late
TTITLE10=Never Be Anyone Else But You
TTITLE11=Fools Rush In
TTITLE12=It's Up To You
TTITLE13=Poor Little Fool
TTITLE14=Milk Cow Blues Boogie
TTITLE15=Honky Tonk Woman
TTITLE16=My Bucket's Got A Hole In It
TTITLE17=Boppin' The Blues
TTITLE18=Lonesome Town
EXTD=
EXTT0=
EXTT1=
EXTT2=
EXTT3=
EXTT4=
EXTT5=
EXTT6=
EXTT7=
EXTT8=
EXTT9=
EXTT10=
EXTT11=
EXTT12=
EXTT13=
EXTT14=
EXTT15=
EXTT16=
EXTT17=
EXTT18=
PLAYORDER=
